<?xml version="1.0" encoding="UTF-8" standalone="no"?>
<!-- Created with Inkscape (http://www.inkscape.org/) -->

<svg
   xmlns:dc="http://purl.org/dc/elements/1.1/"
   xmlns:cc="http://creativecommons.org/ns#"
   xmlns:rdf="http://www.w3.org/1999/02/22-rdf-syntax-ns#"
   xmlns:svg="http://www.w3.org/2000/svg"
   xmlns="http://www.w3.org/2000/svg"
   xmlns:sodipodi="http://sodipodi.sourceforge.net/DTD/sodipodi-0.dtd"
   xmlns:inkscape="http://www.inkscape.org/namespaces/inkscape"
   version="1.1"
   id="svg2"
   width="211.91931"
   height="222.15562"
   viewBox="0 0 211.91931 222.15562"
   sodipodi:docname="mbot.svg"
   inkscape:version="0.92.1 r15371">
  <metadata
     id="metadata8">
    <rdf:RDF>
      <cc:Work
         rdf:about="">
        <dc:format>image/svg+xml</dc:format>
        <dc:type
           rdf:resource="http://purl.org/dc/dcmitype/StillImage" />
        <dc:title></dc:title>
      </cc:Work>
    </rdf:RDF>
  </metadata>
  <defs
     id="defs6" />
  <sodipodi:namedview
     pagecolor="#ffffff"
     bordercolor="#666666"
     borderopacity="1"
     objecttolerance="10"
     gridtolerance="10"
     guidetolerance="10"
     inkscape:pageopacity="0"
     inkscape:pageshadow="2"
     inkscape:window-width="1920"
     inkscape:window-height="1029"
     id="namedview4"
     showgrid="false"
     inkscape:zoom="0.53115918"
     inkscape:cx="275.65425"
     inkscape:cy="172.6171"
     inkscape:window-x="0"
     inkscape:window-y="27"
     inkscape:window-maximized="1"
     inkscape:current-layer="svg2" />
  <g
     id="g50"
     transform="translate(2.8240071,0.94133732)">
    <path
       style="fill:#fcfcfc;stroke-width:0.27665707"
       d="M 0,111.07781 V 0 H 105.95965 211.91931 V 111.07781 222.15562 H 105.95965 0 Z"
       id="path66"
       inkscape:connector-curvature="0" />
    <path
       style="fill:#d7d7d7;stroke-width:0.27665707"
       d="m 41.636888,219.37495 c -2.891066,-0.10473 -6.820009,-0.20665 -8.730984,-0.22649 -2.468102,-0.0256 -3.625624,-0.14657 -3.996245,-0.41757 -0.497308,-0.36365 -0.451197,-0.49424 0.984586,-2.78846 2.175609,-3.47636 6.986689,-9.81744 9.836218,-12.96428 1.352856,-1.49401 2.99473,-3.34806 3.648609,-4.1201 l 1.188867,-1.40371 -0.08224,-7.04027 -0.08224,-7.04027 -1.106629,-0.85058 c -0.608645,-0.46782 -2.166543,-1.91943 -3.461998,-3.2258 -3.936686,-3.96988 -5.551857,-7.86567 -6.732026,-16.23765 l -0.61982,-4.39695 -10.147255,0.10765 -10.147254,0.10765 -0.286066,-0.75241 C 11.573005,157.2593 11.62627,19.543734 11.956139,19.21388 12.488828,18.681217 32.752948,15.010151 42.328531,13.711591 56.226113,11.826918 67.058698,11.477019 77.18732,12.58563 c 9.039341,0.989386 14.388602,3.00111 25.1108,9.443543 2.62707,1.578479 4.94307,2.869962 5.14665,2.869962 0.20358,0 1.78902,-0.667792 3.52321,-1.483983 1.73418,-0.816191 5.33173,-2.361158 7.99456,-3.43326 12.27675,-4.942845 20.97028,-7.122667 31.30266,-7.848852 4.14509,-0.291328 5.51179,-0.275469 9.78922,0.113587 14.2015,1.291706 23.34499,5.107299 31.26606,13.047378 8.36128,8.381345 12.6044,18.510629 14.37884,34.325592 0.90735,8.086807 1.02327,16.728215 0.78308,58.374643 l -0.23456,40.66858 -12.44957,0.13833 -12.44957,0.13833 -0.17636,3.76768 c -0.46219,9.8738 -1.75868,12.47662 -9.73123,19.53627 l -1.32286,1.17139 0.0821,7.27503 0.0821,7.27503 5.82177,7.32304 c 8.39876,10.56455 9.5327,12.05593 9.5327,12.53757 0,0.54753 -0.63699,0.64832 -6.36311,1.00686 -13.75695,0.86139 -35.12539,1.07737 -54.08646,0.54667 -12.00217,-0.33593 -12.31124,-0.36308 -12.31124,-1.08158 0,-1.30958 7.11202,-10.97356 12.24346,-16.63671 1.59666,-1.76211 3.02905,-3.4428 3.1831,-3.73487 0.16392,-0.31082 0.32179,-3.97304 0.38065,-8.83076 l 0.10057,-8.29971 -21.33647,-0.0709 c -16.881811,-0.0561 -21.396824,0.002 -21.625531,0.27743 -0.445127,0.53634 0.06309,16.02468 0.558327,17.01558 0.209067,0.41831 3.427167,4.61992 7.151331,9.33693 8.250973,10.45063 8.137183,10.29294 7.757733,10.75014 -0.94371,1.13711 -40.233119,1.9738 -59.652362,1.27034 z m 30.15562,-111.34319 c 2.26498,-0.61235 7.57365,-3.18484 9.692508,-4.69683 0.956811,-0.68276 2.313869,-1.89659 3.015687,-2.69738 1.582525,-1.805716 3.510388,-5.662714 4.422512,-8.847947 0.896339,-3.130103 2.763049,-14.460671 2.463247,-14.951416 -0.49855,-0.816069 -10.308729,-9.76644 -12.124214,-11.061593 -2.731739,-1.9488 -6.549499,-3.732889 -8.714697,-4.072494 -10.044195,-1.575396 -19.663514,2.708389 -25.023465,11.143738 -6.270081,9.867685 -3.797359,23.683178 5.502493,30.743302 2.947084,2.23732 6.557386,3.92342 10.114632,4.72378 2.292358,0.51577 8.285508,0.35644 10.651297,-0.28316 z M 59.027747,101.55139 C 58.70223,101.41146 57.74519,100.26078 56.90099,98.994309 56.056791,97.727842 54.535188,95.508934 53.519649,94.063401 50.345737,89.545602 49.163938,86.345391 49.553164,83.3225 c 0.294291,-2.285591 2.355303,-6.262332 4.351514,-8.396287 2.771371,-2.962604 5.333616,-4.082797 12.908003,-5.643278 2.586743,-0.532925 5.317122,-1.151126 6.067504,-1.373783 0.750385,-0.222656 1.521658,-0.404829 1.713943,-0.404829 0.368305,0 7.806834,8.290444 8.349607,9.305869 0.214664,0.401596 0.323213,3.190124 0.338496,8.695611 l 0.02249,8.104439 -3.799888,3.807172 c -3.165089,3.171156 -3.964927,3.830946 -4.78781,3.949476 -1.955974,0.28174 -15.103407,0.43635 -15.689283,0.1845 z m 10.17392,-27.348721 c -0.509536,-0.169845 -5.955342,1.580785 -7.770193,2.497837 -1.190129,0.601378 -1.95998,1.203065 -2.310922,1.806128 -0.765803,1.315975 -4.068248,9.455718 -4.05193,9.987054 0.0077,0.252134 3.19335,-2.783258 7.213263,-6.873129 3.959668,-4.028575 7.07357,-7.366628 6.919782,-7.41789 z M 155.89625,104.32 c 1.2173,-0.31728 3.87327,-1.39171 5.90216,-2.38763 3.2645,-1.60244 3.93322,-2.05581 5.8125,-3.940729 3.93923,-3.951051 5.46294,-7.724639 7.08045,-17.535322 0.54223,-3.288808 0.98532,-6.272347 0.98463,-6.630089 -8.3e-4,-0.476451 -1.08677,-1.686493 -4.05939,-4.523636 -6.8984,-6.584012 -10.10938,-8.99564 -14.06379,-10.562706 -1.85286,-0.734256 -2.13444,-0.766083 -6.77471,-0.765773 -5.56157,2.77e-4 -6.89671,0.265904 -10.92795,2.173349 -8.63595,4.086238 -14.23638,13.351705 -13.61025,22.517074 0.40679,5.954589 3.00618,11.586594 7.24019,15.687047 5.82617,5.642385 14.65155,7.992185 22.41616,5.968415 z m -12.73682,-6.460502 c -0.37444,-0.210273 -2.07174,-2.585595 -6.09533,-8.530269 -3.99747,-5.906064 -4.35393,-9.128829 -1.59301,-14.402205 1.16084,-2.217208 3.45948,-4.827973 5.27849,-5.995228 2.09417,-1.343823 4.57898,-2.144956 10.4169,-3.358542 2.98545,-0.620614 5.74593,-1.249234 6.1344,-1.39693 1.59939,-0.608087 1.80135,-0.46204 5.9541,4.305746 l 3.98421,4.574293 0.1782,2.411298 c 0.098,1.326217 0.19138,5.090294 0.20749,8.364619 l 0.0293,5.953316 -2.69741,2.625963 c -1.48357,1.44428 -3.3555,3.247132 -4.15984,4.006337 l -1.46243,1.380375 -7.89572,0.138329 c -4.34265,0.07608 -8.06835,0.04139 -8.27935,-0.0771 z m 3.43108,-19.980502 c 3.82479,-3.880096 6.95416,-7.179231 6.95416,-7.331412 0,-0.447355 -0.73685,-0.32689 -3.34467,0.54681 -3.41811,1.145172 -4.93069,1.969621 -6.26062,3.412421 -1.36522,1.481089 -1.93735,2.558947 -3.55694,6.701054 -1.26188,3.227257 -1.3937,3.725849 -0.98502,3.725849 0.13141,0 3.3683,-3.174623 7.19309,-7.054722 z"
       id="path64"
       inkscape:connector-curvature="0" />
    <path
       style="fill:#bababa;stroke-width:0.27665707"
       d="m 39.976946,219.06509 c -9.328794,-0.25452 -10.927954,-0.37899 -10.927954,-0.85052 0,-0.52117 5.062434,-7.90967 7.578107,-11.06008 1.302872,-1.63161 3.214677,-3.87253 4.248456,-4.97983 1.033779,-1.1073 2.343839,-2.54274 2.911243,-3.18987 l 1.031646,-1.17658 v -7.23102 -7.23101 l -1.037464,-0.86041 c -0.570605,-0.47323 -2.174801,-1.99421 -3.564881,-3.37996 -4.082166,-4.06947 -5.566827,-7.63922 -6.79893,-16.34751 l -0.594841,-4.20424 -10.035876,0.16752 c -7.949658,0.13271 -10.124672,0.0938 -10.463037,-0.18698 -0.383033,-0.31789 -0.427161,-7.52301 -0.427161,-69.745232 0,-42.693762 0.09941,-69.452161 0.258401,-69.550419 0.626981,-0.387496 14.705641,-3.0523 22.565806,-4.271249 12.883236,-1.997923 21.642708,-2.794648 30.726259,-2.794734 6.047527,-5.8e-5 13.408754,0.554309 16.997085,1.280032 5.6104,1.134678 11.97722,3.943775 20.281405,8.948336 l 4.65028,2.802515 2.95779,-1.368086 c 8.69094,-4.019882 18.70279,-7.696999 25.64367,-9.418313 10.83703,-2.687552 22.91094,-2.95304 33.19352,-0.729878 9.10385,1.968312 16.22928,5.685734 21.99956,11.477437 9.46049,9.495614 13.84198,21.720304 14.92707,41.647671 0.17332,3.183001 0.28678,22.240223 0.28765,48.31195 0.001,36.22749 -0.059,43.1056 -0.37957,43.37165 -0.2762,0.22923 -3.76526,0.29561 -12.68622,0.24137 l -12.30524,-0.0748 -0.16907,3.8732 c -0.42636,9.76719 -1.71535,12.34159 -9.8059,19.58464 l -1.17131,1.04862 v 7.42515 7.42515 l 6.43715,8.12566 c 3.54043,4.46911 7.0222,8.87051 7.73726,9.7809 0.7496,0.95435 1.19692,1.75844 1.0564,1.89896 -0.13405,0.13404 -1.59276,0.34945 -3.24159,0.47867 -9.33099,0.73132 -17.21528,0.93123 -35.78173,0.90725 -20.9064,-0.027 -32.13531,-0.30771 -32.64369,-0.81609 -0.65067,-0.65067 6.30205,-10.17954 12.24224,-16.77831 l 3.17283,-3.52458 0.17347,-2.83853 c 0.25013,-4.093 0.29539,-14.18442 0.0653,-14.55673 -0.24041,-0.38898 -43.477028,-0.45934 -43.71695,-0.0711 -0.08336,0.13489 -0.04224,4.05732 0.09138,8.71653 0.210154,7.32776 0.308149,8.57079 0.725935,9.20842 0.26564,0.40542 3.494281,4.54408 7.174755,9.19701 7.09522,8.96995 7.7885,9.90486 7.53377,10.15959 -0.26717,0.26717 -10.033392,0.8729 -19.1418,1.18722 -9.678474,0.334 -28.954923,0.32047 -41.775216,-0.0293 z M 68.341551,108.99678 c 1.289383,-0.15552 3.208052,-0.53969 4.263712,-0.85371 2.469952,-0.73473 7.290953,-3.15686 9.444859,-4.74521 3.434257,-2.53251 5.83623,-6.443581 7.431813,-12.10103 0.510123,-1.808737 2.36821,-12.647917 2.36821,-13.814989 0,-0.697187 -0.719433,-1.491796 -5.013236,-5.537075 -5.778113,-5.443679 -7.765562,-7.011674 -11.032874,-8.70437 -3.544419,-1.836256 -5.002809,-2.17201 -9.315779,-2.144701 -4.553532,0.02883 -7.489713,0.665709 -11.060962,2.399192 -7.165073,3.477925 -12.045975,9.868786 -13.526282,17.710772 -1.143672,6.058657 0.682419,13.086991 4.830535,18.591957 3.72794,4.947344 10.316326,8.567434 16.722182,9.188244 1.238779,0.12006 2.317839,0.23525 2.397909,0.25598 0.08007,0.0207 1.200534,-0.0895 2.489913,-0.24506 z m -10.418363,-8.63943 c -0.404276,-0.646687 -1.825092,-2.73199 -3.157373,-4.634007 -5.759057,-8.221871 -6.355358,-10.874531 -3.678673,-16.364672 2.936239,-6.022509 6.024052,-8.017472 15.31452,-9.894355 2.356319,-0.47603 5.187979,-1.099653 6.292576,-1.38583 2.430358,-0.629655 1.85778,-1.014192 6.558701,4.404729 2.195445,2.53077 3.578551,4.368218 3.748471,4.979827 0.148105,0.533079 0.269976,4.354684 0.270822,8.492456 l 0.0017,7.523221 -3.861754,3.844742 -3.861753,3.844739 -5.198765,0.18169 c -2.85932,0.0999 -6.660027,0.18204 -8.446017,0.18247 l -3.247248,8.3e-4 -0.73505,-1.17579 z M 69.661761,73.996053 c -0.173184,-0.173184 -5.769757,1.460365 -7.546228,2.202622 -1.593826,0.665944 -2.848389,1.716342 -3.430356,2.872107 -0.788478,1.565893 -3.907264,9.38457 -3.905668,9.791361 8.3e-4,0.197868 3.385721,-3.029937 7.522101,-7.172896 4.136377,-4.142962 7.448447,-7.604899 7.360151,-7.693194 z m 87.202789,30.444497 c 3.07928,-0.99585 7.75516,-3.37772 9.7499,-4.966556 3.24041,-2.581033 5.67697,-6.601801 6.96712,-11.497049 0.9704,-3.682015 2.71488,-14.317534 2.43148,-14.823943 -0.45917,-0.820496 -9.66491,-9.348182 -11.95541,-11.074826 -4.89965,-3.693502 -8.96632,-5.017317 -14.51908,-4.726373 -3.78959,0.198559 -6.74618,0.946114 -9.96507,2.51961 -10.33357,5.051356 -15.79402,16.420299 -13.02693,27.122722 1.78944,6.921085 6.05542,12.40989 12.01312,15.456635 4.63187,2.36871 7.17562,2.95986 12.21842,2.83946 3.1636,-0.0755 4.09456,-0.2055 6.08645,-0.84968 z m -15.61532,-9.132192 c -0.99774,-1.445534 -2.60714,-3.779828 -3.57646,-5.18732 -3.22971,-4.689711 -4.25255,-7.594522 -3.7598,-10.677602 0.39904,-2.496733 2.46476,-6.350361 4.52475,-8.441 2.75979,-2.80086 5.47888,-3.909884 13.30868,-5.428167 1.67377,-0.324566 3.9487,-0.851293 5.0554,-1.170505 l 2.01217,-0.580391 0.71689,0.664682 c 0.3943,0.365575 2.28997,2.465745 4.21262,4.667045 l 3.49571,4.002361 0.18429,3.052394 c 0.10136,1.678816 0.19473,5.408886 0.20749,8.289044 l 0.0232,5.23665 -4.0721,3.920563 -4.0721,3.92056 -5.12675,0.179182 c -2.81971,0.09855 -6.52022,0.179534 -8.22334,0.179963 l -3.09659,8.3e-4 -1.81407,-2.628242 z m 6.96573,-19.02761 c 4.85651,-4.979254 6,-6.286512 5.49899,-6.286512 -0.0591,0 -1.16565,0.306675 -2.45909,0.681498 -4.82802,1.399105 -7.1232,2.838568 -8.69391,5.452532 -0.87268,1.452303 -3.17142,7.048381 -3.56026,8.667123 -0.18537,0.771688 -0.0657,0.703689 1.70427,-0.9683 1.047,-0.989049 4.4265,-4.3849 7.51,-7.546341 z"
       id="path62"
       inkscape:connector-curvature="0" />
    <path
       style="fill:#a8a8a8;stroke-width:0.27665707"
       d="m 38.91567,218.54414 c -3.018285,-0.13162 -6.421703,-0.27547 -7.563151,-0.31968 l -2.07536,-0.0804 2.485493,-3.73487 c 2.924611,-4.39471 6.428876,-8.8123 10.440788,-13.16197 l 2.891661,-3.1351 v -7.50755 -7.50755 L 44.20574,182.3612 c -2.24513,-1.85759 -5.598999,-5.29378 -6.517321,-6.67728 -1.983449,-2.9882 -3.011952,-6.39586 -3.974085,-13.16704 -0.519318,-3.65479 -0.674739,-4.26685 -1.046826,-4.12247 -0.240329,0.0933 -4.820403,0.24233 -10.177947,0.3313 -7.691891,0.12772 -9.830632,0.0873 -10.167147,-0.19194 -0.381703,-0.31678 -0.42616,-7.59255 -0.42616,-69.744402 0,-42.693762 0.09941,-69.452161 0.258401,-69.550419 0.626981,-0.387496 14.705641,-3.0523 22.565806,-4.271249 12.883236,-1.997923 21.642708,-2.794648 30.726259,-2.794734 6.047527,-5.8e-5 13.408754,0.554309 16.997085,1.280032 5.6104,1.134678 11.97722,3.943775 20.281405,8.948336 l 4.65028,2.802515 2.95779,-1.368086 c 8.69094,-4.019882 18.70279,-7.696999 25.64367,-9.418313 10.83703,-2.687552 22.91094,-2.95304 33.19352,-0.729878 9.10385,1.968312 16.22928,5.685734 21.99956,11.477437 9.46049,9.495614 13.84198,21.720304 14.92707,41.647671 0.43059,7.907692 0.39158,91.22199 -0.0429,91.65648 -0.46427,0.46427 -24.58612,0.47902 -25.04981,0.0153 -0.46462,-0.46462 -0.57705,0.36143 -0.72088,5.2965 -0.13813,4.73991 -0.69925,7.52275 -2.0263,10.04944 -0.48992,0.93279 -2.13123,2.79695 -4.70922,5.34861 l -3.95719,3.91676 v 7.37519 c 0,5.07718 0.10026,7.56252 0.32178,7.97643 0.17698,0.33069 2.01716,2.71904 4.08929,5.30746 6.57735,8.21615 10.86997,13.72522 10.76674,13.81787 -0.24427,0.21924 -8.90061,0.72242 -17.49475,1.01694 -13.74841,0.47116 -53.56779,0.0341 -53.56779,-0.58797 0,-0.11365 0.99,-1.6843 2.20001,-3.49034 2.66116,-3.97204 6.6364,-8.99674 9.93015,-12.55173 3.7867,-4.08702 3.44831,-2.91175 3.65521,-12.69508 0.0985,-4.65805 0.12162,-8.62554 0.0514,-8.81664 -0.10135,-0.2757 -4.70685,-0.33284 -22.29923,-0.27666 l -22.171503,0.0708 0.07567,7.05475 c 0.04162,3.88012 0.146194,7.96352 0.232384,9.07423 l 0.156709,2.01947 7.44485,9.42572 c 4.094669,5.18415 7.44485,9.52238 7.44485,9.6405 0,0.2516 -2.359533,0.46669 -9.406337,0.85748 -6.665665,0.36965 -45.01906,0.53888 -52.104504,0.22991 z m 32.738509,-109.8238 c 2.637635,-0.64103 7.116596,-2.67782 9.605777,-4.36819 3.883795,-2.63743 6.700039,-6.765986 8.245017,-12.08702 0.76284,-2.627288 2.624659,-13.154031 2.61779,-14.801001 -0.0037,-0.894853 -0.376932,-1.319964 -4.910663,-5.59379 -5.675382,-5.350027 -8.296348,-7.434721 -11.318389,-9.002548 -3.502119,-1.81689 -4.912021,-2.136348 -9.357687,-2.120288 -4.756103,0.01718 -7.641385,0.652841 -11.375278,2.506098 -5.127858,2.545128 -8.975467,6.43104 -11.441574,11.555478 -1.916948,3.983317 -2.352697,5.903765 -2.328669,10.262967 0.02327,4.219217 0.578122,6.679774 2.335052,10.354826 3.719424,7.780078 10.311744,12.499258 19.490584,13.952538 1.617627,0.25612 6.119007,-0.0955 8.43804,-0.65907 z m -13.730991,-8.36299 c -0.404276,-0.646687 -1.825092,-2.73199 -3.157373,-4.634007 -5.759057,-8.221871 -6.355358,-10.874531 -3.678673,-16.364672 2.936239,-6.022509 6.024052,-8.017472 15.31452,-9.894355 2.356319,-0.47603 5.187979,-1.099653 6.292576,-1.38583 2.430358,-0.629655 1.85778,-1.014192 6.558701,4.404729 2.195445,2.53077 3.578551,4.368218 3.748471,4.979827 0.148105,0.533079 0.269976,4.354684 0.270822,8.492456 l 0.0017,7.523221 -3.861754,3.844742 -3.861753,3.844739 -5.198765,0.18169 c -2.85932,0.0999 -6.660027,0.18204 -8.446017,0.18247 l -3.247248,8.3e-4 -0.73505,-1.17579 z M 69.661761,73.996053 c -0.173184,-0.173184 -5.769757,1.460365 -7.546228,2.202622 -1.593826,0.665944 -2.848389,1.716342 -3.430356,2.872107 -0.788478,1.565893 -3.907264,9.38457 -3.905668,9.791361 8.3e-4,0.197868 3.385721,-3.029937 7.522101,-7.172896 4.136377,-4.142962 7.448447,-7.604899 7.360151,-7.693194 z m 83.615059,31.562807 c 3.13979,-0.47331 5.82961,-1.39451 9.40646,-3.22147 6.1862,-3.159743 9.52734,-7.576434 11.42148,-15.09817 0.98624,-3.916462 2.50233,-13.622074 2.21976,-14.210404 -0.29349,-0.611066 -8.98961,-8.789201 -11.33765,-10.662322 -2.17097,-1.731862 -5.34131,-3.565299 -7.79142,-4.50585 -1.7163,-0.658853 -2.18815,-0.711614 -6.41735,-0.717543 -3.94926,-0.0055 -4.86263,0.07933 -6.77308,0.629317 -4.82247,1.388329 -8.39539,3.581771 -11.97816,7.353498 -3.60831,3.798618 -5.82622,8.676408 -6.46807,14.225061 -0.27834,2.406103 -0.24837,2.996382 0.29532,5.816914 1.15152,5.973842 3.24905,9.951908 7.25155,13.752869 2.19876,2.08805 3.87417,3.23949 6.41951,4.41187 2.65567,1.22319 5.415,2.02934 7.93304,2.31766 2.99124,0.3425 2.93419,0.34339 5.81861,-0.0914 z M 141.24923,95.308358 c -0.99774,-1.445534 -2.60714,-3.779828 -3.57646,-5.18732 -3.22971,-4.689711 -4.25255,-7.594522 -3.7598,-10.677602 0.39904,-2.496733 2.46476,-6.350361 4.52475,-8.441 2.75979,-2.80086 5.47888,-3.909884 13.30868,-5.428167 1.67377,-0.324566 3.9487,-0.851293 5.0554,-1.170505 l 2.01217,-0.580391 0.71689,0.664682 c 0.3943,0.365575 2.28997,2.465745 4.21262,4.667045 l 3.49571,4.002361 0.18429,3.052394 c 0.10136,1.678816 0.19473,5.408886 0.20749,8.289044 l 0.0232,5.23665 -4.0721,3.920563 -4.0721,3.92056 -5.12675,0.179182 c -2.81971,0.09855 -6.52022,0.179534 -8.22334,0.179963 l -3.09659,8.3e-4 -1.81407,-2.628242 z m 6.96573,-19.02761 c 4.85651,-4.979254 6,-6.286512 5.49899,-6.286512 -0.0591,0 -1.16565,0.306675 -2.45909,0.681498 -4.82802,1.399105 -7.1232,2.838568 -8.69391,5.452532 -0.87268,1.452303 -3.17142,7.048381 -3.56026,8.667123 -0.18537,0.771688 -0.0657,0.703689 1.70427,-0.9683 1.047,-0.989049 4.4265,-4.3849 7.51,-7.546341 z"
       id="path60"
       inkscape:connector-curvature="0" />
    <path
       style="fill:#9b9b9b;stroke-width:0.27665707"
       d="m 100.28819,167.47259 c -3.470894,-0.41269 -5.738879,-0.76609 -8.853031,-1.3795 -15.682413,-3.08904 -27.669397,-12.19203 -30.474854,-23.1428 -0.610914,-2.38464 -0.597184,-7.31056 0.02634,-9.45144 0.63488,-2.17985 1.66926,-4.18357 2.285818,-4.42791 2.039161,-0.80811 11.895155,-1.5491 23.597848,-1.77413 l 8.991363,-0.17289 0.181836,-7.05476 c 0.100009,-3.88011 0.201976,-14.83573 0.226593,-24.345817 0.0445,-17.194145 -0.160139,-23.665685 -0.97472,-30.824269 C 93.426006,48.470917 86.57785,38.615142 75.482955,36.385292 68.595937,35.001141 61.050238,35.070856 45.024473,36.666705 c -3.766796,0.3751 -6.902682,0.681998 -6.968629,0.681998 -0.06595,0 -0.15866,26.948893 -0.206029,59.886433 -0.0785,54.581264 -0.125539,59.925844 -0.531029,60.331274 -0.665269,0.66518 -4.111254,0.92655 -14.96822,1.1353 -7.599005,0.1461 -9.692129,0.11094 -10.028818,-0.16849 -0.380818,-0.31605 -0.425494,-7.63904 -0.425494,-69.743852 0,-42.693762 0.09941,-69.452161 0.258401,-69.550419 0.626981,-0.387496 14.705641,-3.0523 22.565806,-4.271249 12.883236,-1.997923 21.642708,-2.794648 30.726259,-2.794734 6.047527,-5.8e-5 13.408754,0.554309 16.997085,1.280032 5.6104,1.134678 11.97722,3.943775 20.281405,8.948336 l 4.65028,2.802515 2.95779,-1.368086 c 8.69094,-4.019882 18.70279,-7.696999 25.64367,-9.418313 10.83703,-2.687552 22.91094,-2.95304 33.19352,-0.729878 9.10385,1.968312 16.22928,5.685734 21.99956,11.477437 9.46049,9.495614 13.84198,21.720304 14.92707,41.647671 0.43059,7.907692 0.39158,91.22199 -0.0429,91.65648 -0.24819,0.2482 -3.41687,0.33199 -12.55402,0.33199 -11.03037,0 -12.25906,-0.0446 -12.60173,-0.45741 -0.31695,-0.38183 -0.40779,-8.07373 -0.54974,-46.54755 -0.0935,-25.349579 -0.24232,-46.401377 -0.33066,-46.781781 -0.0884,-0.380403 -0.3047,-1.874351 -0.48078,-3.319884 -0.68424,-5.617276 -2.788,-11.766809 -5.26965,-15.40377 -2.04227,-2.99304 -5.9148,-6.501649 -8.77091,-7.946665 -2.19346,-1.109757 -8.4546,-2.617328 -12.4236,-2.991379 -6.05205,-0.570367 -13.53098,0.377806 -20.55436,2.605863 -2.70971,0.859615 -10.2367,3.757991 -13.10669,5.04692 l -1.62542,0.72999 0.15236,1.163957 c 0.0838,0.640179 0.588,3.716121 1.12044,6.835429 1.00124,5.865789 1.87028,13.140077 2.42928,20.334294 0.19184,2.468927 0.38988,14.459565 0.48892,29.602306 l 0.16647,25.45245 3.8732,0.17374 c 2.13026,0.0956 6.30087,0.19085 9.26801,0.21177 7.95532,0.0561 16.03922,0.66306 19.10554,1.43453 1.17983,0.29683 1.87475,1.39216 2.7068,4.26641 1.35629,4.68521 0.89296,9.21119 -1.41608,13.83286 -4.52243,9.05186 -14.60165,15.91495 -27.58934,18.78601 -6.21944,1.37487 -11.17141,1.82905 -19.44574,1.78349 -4.14058,-0.0228 -7.90181,-0.0859 -8.35829,-0.14014 z M 57.923188,100.35735 c -0.404276,-0.646687 -1.825092,-2.73199 -3.157373,-4.634007 -5.759057,-8.221871 -6.355358,-10.874531 -3.678673,-16.364672 2.936239,-6.022509 6.024052,-8.017472 15.31452,-9.894355 2.356319,-0.47603 5.187979,-1.099653 6.292576,-1.38583 2.430358,-0.629655 1.85778,-1.014192 6.558701,4.404729 2.195445,2.53077 3.578551,4.368218 3.748471,4.979827 0.148105,0.533079 0.269976,4.354684 0.270822,8.492456 l 0.0017,7.523221 -3.861754,3.844742 -3.861753,3.844739 -5.198765,0.18169 c -2.85932,0.0999 -6.660027,0.18204 -8.446017,0.18247 l -3.247248,8.3e-4 -0.73505,-1.17579 z M 69.661761,73.996053 c -0.173184,-0.173184 -5.769757,1.460365 -7.546228,2.202622 -1.593826,0.665944 -2.848389,1.716342 -3.430356,2.872107 -0.788478,1.565893 -3.907264,9.38457 -3.905668,9.791361 8.3e-4,0.197868 3.385721,-3.029937 7.522101,-7.172896 4.136377,-4.142962 7.448447,-7.604899 7.360151,-7.693194 z m 71.587469,21.312305 c -0.99774,-1.445534 -2.60714,-3.779828 -3.57646,-5.18732 -3.22971,-4.689711 -4.25255,-7.594522 -3.7598,-10.677602 0.39904,-2.496733 2.46476,-6.350361 4.52475,-8.441 2.75979,-2.80086 5.47888,-3.909884 13.30868,-5.428167 1.67377,-0.324566 3.9487,-0.851293 5.0554,-1.170505 l 2.01217,-0.580391 0.71689,0.664682 c 0.3943,0.365575 2.28997,2.465745 4.21262,4.667045 l 3.49571,4.002361 0.18429,3.052394 c 0.10136,1.678816 0.19473,5.408886 0.20749,8.289044 l 0.0232,5.23665 -4.0721,3.920563 -4.0721,3.92056 -5.12675,0.179182 c -2.81971,0.09855 -6.52022,0.179534 -8.22334,0.179963 l -3.09659,8.3e-4 -1.81407,-2.628242 z m 6.96573,-19.02761 c 4.85651,-4.979254 6,-6.286512 5.49899,-6.286512 -0.0591,0 -1.16565,0.306675 -2.45909,0.681498 -4.82802,1.399105 -7.1232,2.838568 -8.69391,5.452532 -0.87268,1.452303 -3.17142,7.048381 -3.56026,8.667123 -0.18537,0.771688 -0.0657,0.703689 1.70427,-0.9683 1.047,-0.989049 4.4265,-4.3849 7.51,-7.546341 z"
       id="path58"
       inkscape:connector-curvature="0" />
    <path
       style="fill:#858585;stroke-width:0.27665707"
       d="m 100.28819,167.47259 c -3.470894,-0.41269 -5.738879,-0.76609 -8.853031,-1.3795 -15.682413,-3.08904 -27.669397,-12.19203 -30.474854,-23.1428 -0.610914,-2.38464 -0.597184,-7.31056 0.02634,-9.45144 0.63488,-2.17985 1.66926,-4.18357 2.285818,-4.42791 2.039161,-0.80811 11.895155,-1.5491 23.597848,-1.77413 l 8.991363,-0.17289 0.181836,-7.05476 c 0.100009,-3.88011 0.201976,-14.83573 0.226593,-24.345817 0.0445,-17.194145 -0.160139,-23.665685 -0.97472,-30.824269 C 93.426006,48.470917 86.57785,38.615142 75.482955,36.385292 68.595937,35.001141 61.050238,35.070856 45.024473,36.666705 c -3.766796,0.3751 -6.902682,0.681998 -6.968629,0.681998 -0.06595,0 -0.15866,26.948893 -0.206029,59.886433 -0.08091,56.256844 -0.115037,59.915334 -0.56313,60.363374 -0.433757,0.43371 -1.581372,0.48649 -12.657604,0.58221 l -12.180601,0.10527 0.06971,-69.390834 0.06971,-69.390833 5.809799,-1.170716 c 9.82407,-1.979619 21.776172,-3.892447 30.847262,-4.936829 2.33589,-0.268938 7.46548,-0.486511 13.694525,-0.580857 8.231167,-0.12467 10.65585,-0.07084 13.971181,0.310147 9.342571,1.073631 14.204775,2.888838 24.988153,9.328831 2.76057,1.648653 5.26204,2.997551 5.55881,2.997551 0.29678,0 2.10419,-0.732319 4.01649,-1.627375 10.41835,-4.876355 21.82557,-8.676434 30.94264,-10.307897 4.09096,-0.732061 15.01799,-1.02788 19.76702,-0.535138 17.2324,1.787972 29.52946,9.674573 36.69923,23.536692 3.46603,6.701262 5.48781,14.757192 6.59603,26.282421 0.45369,4.718203 0.48464,8.642066 0.39609,50.213257 -0.0528,24.8023 -0.123,45.12377 -0.15593,45.15881 -0.0329,0.0351 -5.65427,0.0715 -12.49185,0.0811 l -12.43196,0.0174 -0.17178,-4.09261 c -0.0945,-2.25093 -0.18784,-21.96398 -0.20749,-43.80676 -0.0356,-39.543073 -0.12796,-44.034235 -1.02427,-49.784414 -0.85725,-5.499632 -2.77792,-10.858496 -5.12425,-14.297141 -2.04227,-2.99304 -5.9148,-6.501649 -8.77091,-7.946665 -2.19346,-1.109757 -8.4546,-2.617328 -12.4236,-2.991379 -6.05205,-0.570367 -13.53098,0.377806 -20.55436,2.605863 -2.70971,0.859615 -10.2367,3.757991 -13.10669,5.04692 l -1.62542,0.72999 0.15236,1.163957 c 0.0838,0.640179 0.588,3.716121 1.12044,6.835429 1.00124,5.865789 1.87028,13.140077 2.42928,20.334294 0.19184,2.468927 0.38988,14.459565 0.48892,29.602306 l 0.16647,25.45245 3.8732,0.17374 c 2.13026,0.0956 6.30087,0.19085 9.26801,0.21177 7.95532,0.0561 16.03922,0.66306 19.10554,1.43453 1.17983,0.29683 1.87475,1.39216 2.7068,4.26641 1.35629,4.68521 0.89296,9.21119 -1.41608,13.83286 -4.52243,9.05186 -14.60165,15.91495 -27.58934,18.78601 -6.21944,1.37487 -11.17141,1.82905 -19.44574,1.78349 -4.14058,-0.0228 -7.90181,-0.0859 -8.35829,-0.14014 z M 55.766876,96.38888 c -1.798102,-2.572385 -3.782073,-5.734215 -4.408829,-7.026289 -1.075626,-2.217443 -1.1397,-2.489034 -1.14217,-4.841499 -0.0025,-2.423109 0.03423,-2.56652 1.325273,-5.167589 1.088526,-2.193063 1.690983,-3.020218 3.34215,-4.588667 2.603116,-2.472703 4.79595,-3.409032 10.961081,-4.680315 4.02432,-0.829839 6.875763,-1.483884 8.344182,-1.913936 0.32617,-0.09552 1.610285,1.170323 4.426513,4.363546 l 3.967057,4.498106 0.07801,8.169761 0.07801,8.16976 -3.674551,3.66017 -3.674553,3.660172 -8.176451,0.18692 -8.176447,0.18693 z m 1.007671,-8.34277 C 62.20405,82.777491 70.599726,73.849134 70.462,73.490224 c -0.117056,-0.305039 -0.860907,-0.166807 -3.696204,0.686879 -4.423943,1.332013 -4.900101,1.516429 -6.523189,2.526449 -1.512825,0.941403 -1.923417,1.693789 -4.626296,8.477411 -1.512985,3.797251 -1.81061,5.009239 -1.230111,5.009239 0.09833,0 1.173087,-0.964842 2.388347,-2.144092 z m 85.370853,7.777167 c -0.56354,-0.891851 -1.96152,-2.928752 -3.1066,-4.526447 -3.74169,-5.220607 -5.10495,-8.510405 -4.73932,-11.436806 0.28985,-2.319864 2.23741,-6.089125 4.26761,-8.259414 2.72484,-2.912862 4.75789,-3.79838 12.2735,-5.345853 2.62846,-0.541199 5.39296,-1.166176 6.14334,-1.388832 0.75039,-0.222657 1.5171,-0.40483 1.70381,-0.40483 0.18672,0 2.06268,1.958583 4.16881,4.352405 l 3.82933,4.352405 0.1815,2.494857 c 0.0998,1.372172 0.1932,5.048687 0.2075,8.170035 l 0.026,5.675174 -3.80559,3.79831 -3.80559,3.798308 -8.15983,0.171118 -8.15982,0.171118 -1.02463,-1.621548 z m 0.26843,-12.895323 c 7.16272,-7.065409 12.60724,-12.951266 12.28148,-13.277027 -0.36931,-0.369309 -3.56775,0.434902 -7.01157,1.762981 -1.85517,0.715427 -2.59558,1.185287 -3.83081,2.430988 -1.69126,1.705599 -2.52142,3.274134 -4.53255,8.563925 -1.17239,3.083708 -1.38709,4.184839 -0.81598,4.184839 0.10628,0 1.86552,-1.649568 3.90943,-3.665706 z"
       id="path56"
       inkscape:connector-curvature="0" />
    <path
       style="fill:#818181;stroke-width:0.27665707"
       d="m 180.6997,158.10951 c -0.0995,-0.15216 -0.25748,-21.00519 -0.35101,-46.34006 -0.0935,-25.334868 -0.24232,-46.374637 -0.33066,-46.755041 -0.0884,-0.380403 -0.3047,-1.874351 -0.48078,-3.319884 -0.68424,-5.617276 -2.788,-11.766809 -5.26965,-15.40377 -2.04227,-2.99304 -5.9148,-6.501649 -8.77091,-7.946665 -2.19346,-1.109757 -8.4546,-2.617328 -12.4236,-2.991379 -6.05205,-0.570367 -13.53098,0.377806 -20.55436,2.605863 -2.70971,0.859615 -10.2367,3.757991 -13.10669,5.04692 l -1.62542,0.72999 0.15236,1.163957 c 0.0838,0.640179 0.588,3.716121 1.12044,6.835429 1.0019,5.86962 1.8715,13.150368 2.42871,20.334294 0.36701,4.731821 0.77553,55.172486 0.44847,55.374336 -0.11412,0.0704 -0.20749,6.9656 -0.20749,15.3226 v 15.19454 l -0.62248,0.15128 c -0.34236,0.0832 -5.97579,0.1167 -12.51873,0.0744 l -11.896257,-0.0768 -0.07153,-15.32897 C 96.569068,131.84007 96.458615,127.34317 96.234315,127.0729 96.004458,126.79594 95.97236,124.00234 96.114824,116.67276 96.407716,101.60358 96.351599,79.073288 96.007169,73.45245 95.839338,70.713545 95.519032,66.864526 95.295383,64.899074 93.426006,48.470917 86.57785,38.615142 75.482955,36.385292 68.595937,35.001141 61.050238,35.070856 45.024473,36.666705 c -3.766796,0.3751 -6.902682,0.681998 -6.968629,0.681998 -0.06595,0 -0.15866,26.948893 -0.206029,59.886433 -0.08091,56.256844 -0.115037,59.915334 -0.56313,60.363374 -0.433757,0.43371 -1.581372,0.48649 -12.657604,0.58221 l -12.180601,0.10527 0.06971,-69.390834 0.06971,-69.390833 5.809799,-1.170716 c 9.82407,-1.979619 21.776172,-3.892447 30.847262,-4.936829 2.33589,-0.268938 7.46548,-0.486511 13.694525,-0.580857 8.231167,-0.12467 10.65585,-0.07084 13.971181,0.310147 9.342571,1.073631 14.204775,2.888838 24.988153,9.328831 2.76057,1.648653 5.26204,2.997551 5.55881,2.997551 0.29678,0 2.10419,-0.732319 4.01649,-1.627375 10.41835,-4.876355 21.82557,-8.676434 30.94264,-10.307897 4.09096,-0.732061 15.01799,-1.02788 19.76702,-0.535138 3.67406,0.381207 9.44499,1.600431 12.54012,2.649347 16.40142,5.558325 26.39481,18.604249 29.71141,38.786952 1.56647,9.532451 1.69588,14.930094 1.48934,62.117961 l -0.18253,41.70056 -12.43073,0.0746 c -8.06527,0.0484 -12.49428,-0.0225 -12.61169,-0.202 z M 55.766876,96.38888 c -1.798102,-2.572385 -3.782073,-5.734215 -4.408829,-7.026289 -1.075626,-2.217443 -1.1397,-2.489034 -1.14217,-4.841499 -0.0025,-2.423109 0.03423,-2.56652 1.325273,-5.167589 1.088526,-2.193063 1.690983,-3.020218 3.34215,-4.588667 2.603116,-2.472703 4.79595,-3.409032 10.961081,-4.680315 4.02432,-0.829839 6.875763,-1.483884 8.344182,-1.913936 0.32617,-0.09552 1.610285,1.170323 4.426513,4.363546 l 3.967057,4.498106 0.07801,8.169761 0.07801,8.16976 -3.674551,3.66017 -3.674553,3.660172 -8.176451,0.18692 -8.176447,0.18693 z m 1.007671,-8.34277 C 62.20405,82.777491 70.599726,73.849134 70.462,73.490224 c -0.117056,-0.305039 -0.860907,-0.166807 -3.696204,0.686879 -4.423943,1.332013 -4.900101,1.516429 -6.523189,2.526449 -1.512825,0.941403 -1.923417,1.693789 -4.626296,8.477411 -1.512985,3.797251 -1.81061,5.009239 -1.230111,5.009239 0.09833,0 1.173087,-0.964842 2.388347,-2.144092 z m 85.370853,7.777167 c -0.56354,-0.891851 -1.96152,-2.928752 -3.1066,-4.526447 -3.74169,-5.220607 -5.10495,-8.510405 -4.73932,-11.436806 0.28985,-2.319864 2.23741,-6.089125 4.26761,-8.259414 2.72484,-2.912862 4.75789,-3.79838 12.2735,-5.345853 2.62846,-0.541199 5.39296,-1.166176 6.14334,-1.388832 0.75039,-0.222657 1.5171,-0.40483 1.70381,-0.40483 0.18672,0 2.06268,1.958583 4.16881,4.352405 l 3.82933,4.352405 0.1815,2.494857 c 0.0998,1.372172 0.1932,5.048687 0.2075,8.170035 l 0.026,5.675174 -3.80559,3.79831 -3.80559,3.798308 -8.15983,0.171118 -8.15982,0.171118 -1.02463,-1.621548 z m 0.26843,-12.895323 c 7.16272,-7.065409 12.60724,-12.951266 12.28148,-13.277027 -0.36931,-0.369309 -3.56775,0.434902 -7.01157,1.762981 -1.85517,0.715427 -2.59558,1.185287 -3.83081,2.430988 -1.69126,1.705599 -2.52142,3.274134 -4.53255,8.563925 -1.17239,3.083708 -1.38709,4.184839 -0.81598,4.184839 0.10628,0 1.86552,-1.649568 3.90943,-3.665706 z"
       id="path54"
       inkscape:connector-curvature="0" />
    <path
       style="fill:#656565;stroke-width:0.27665707"
       d="m 12.518188,88.91751 0.06971,-69.413187 5.809799,-1.170716 c 9.82407,-1.979619 21.776172,-3.892447 30.847262,-4.936829 2.33589,-0.268938 7.46548,-0.486511 13.694525,-0.580857 8.231167,-0.12467 10.65585,-0.07084 13.971181,0.310147 9.342571,1.073631 14.204775,2.888838 24.988155,9.328831 2.76057,1.648653 5.26204,2.997551 5.55881,2.997551 0.29678,0 2.10419,-0.732319 4.01649,-1.627375 10.41835,-4.876355 21.82557,-8.676434 30.94264,-10.307897 4.09096,-0.732061 15.01799,-1.02788 19.76702,-0.535138 3.67406,0.381207 9.44499,1.600431 12.54012,2.649347 16.40142,5.558325 26.39481,18.604249 29.71141,38.786952 1.56649,9.532634 1.69588,14.929687 1.48931,62.123451 l -0.18254,41.70605 h -12.22266 -12.22266 l -0.18152,-4.19384 c -0.0998,-2.30662 -0.18152,-21.79798 -0.18152,-43.31415 0,-39.105853 -0.10112,-44.179321 -0.99407,-49.873601 -1.47982,-9.436692 -4.85465,-15.974214 -10.61413,-20.561081 -2.71126,-2.159255 -4.68146,-3.058283 -9.18767,-4.192447 -11.58137,-2.914903 -21.88095,-1.483136 -38.2274,5.314073 -2.41093,1.002517 -4.45137,1.999625 -4.53433,2.215799 -0.0829,0.216172 0.18759,2.264939 0.60121,4.552813 1.04265,5.767284 1.97716,12.527139 2.47811,17.925632 1.0584,11.40592 1.12074,14.356562 1.12811,53.394812 l 0.007,38.317 -12.56428,0.072 -12.564271,0.072 0.189671,-38.67473 C 96.871133,74.599708 96.693846,68.274486 94.979078,59.619597 93.33275,51.310138 90.540622,45.660245 85.918108,41.284651 81.019267,36.647488 74.814209,34.870437 63.492796,34.862317 c -5.245454,-0.0038 -25.144116,1.740721 -25.783365,2.260385 -0.254461,0.206859 -0.350339,14.097011 -0.414986,60.120764 -0.04624,32.918464 -0.174935,59.942594 -0.285994,60.053614 -0.4079,0.40779 -5.014199,0.67544 -14.668938,0.85237 l -9.891034,0.18125 z m 43.248688,7.47137 c -1.798102,-2.572385 -3.782073,-5.734215 -4.408829,-7.026289 -1.075626,-2.217443 -1.1397,-2.489034 -1.14217,-4.841499 -0.0025,-2.423109 0.03423,-2.56652 1.325273,-5.167589 1.088526,-2.193063 1.690983,-3.020218 3.34215,-4.588667 2.603116,-2.472703 4.79595,-3.409032 10.961081,-4.680315 4.02432,-0.829839 6.875763,-1.483884 8.344182,-1.913936 0.32617,-0.09552 1.610285,1.170323 4.426513,4.363546 l 3.967057,4.498106 0.07801,8.169761 0.07801,8.16976 -3.674551,3.66017 -3.674553,3.660172 -8.176451,0.18692 -8.176447,0.18693 z m 1.007671,-8.34277 C 62.20405,82.777491 70.599726,73.849134 70.462,73.490224 c -0.117056,-0.305039 -0.860907,-0.166807 -3.696204,0.686879 -4.423943,1.332013 -4.900101,1.516429 -6.523189,2.526449 -1.512825,0.941403 -1.923417,1.693789 -4.626296,8.477411 -1.512985,3.797251 -1.81061,5.009239 -1.230111,5.009239 0.09833,0 1.173087,-0.964842 2.388347,-2.144092 z m 85.370853,7.777167 c -0.56354,-0.891851 -1.96152,-2.928752 -3.1066,-4.526447 -3.74169,-5.220607 -5.10495,-8.510405 -4.73932,-11.436806 0.28985,-2.319864 2.23741,-6.089125 4.26761,-8.259414 2.72484,-2.912862 4.75789,-3.79838 12.2735,-5.345853 2.62846,-0.541199 5.39296,-1.166176 6.14334,-1.388832 0.75039,-0.222657 1.5171,-0.40483 1.70381,-0.40483 0.18672,0 2.06268,1.958583 4.16881,4.352405 l 3.82933,4.352405 0.1815,2.494857 c 0.0998,1.372172 0.1932,5.048687 0.2075,8.170035 l 0.026,5.675174 -3.80559,3.79831 -3.80559,3.798308 -8.15983,0.171118 -8.15982,0.171118 -1.02463,-1.621548 z m 0.26843,-12.895323 c 7.16272,-7.065409 12.60724,-12.951266 12.28148,-13.277027 -0.36931,-0.369309 -3.56775,0.434902 -7.01157,1.762981 -1.85517,0.715427 -2.59558,1.185287 -3.83081,2.430988 -1.69126,1.705599 -2.52142,3.274134 -4.53255,8.563925 -1.17239,3.083708 -1.38709,4.184839 -0.81598,4.184839 0.10628,0 1.86552,-1.649568 3.90943,-3.665706 z"
       id="path52"
       inkscape:connector-curvature="0" />
  </g>
</svg>
